<svg viewBox="0 0 88 43" fill="none" xmlns="http://www.w3.org/2000/svg">
<path d="M1.008 8.12C1.104 9.272 1.104 10.76 1.104 11.864V35.48C1.104 37.16 1.008 40.712 0.960001 41.336H5.088C5.04 40.952 5.04 39.8 4.992 38.552H31.2C31.2 39.848 31.152 41 31.152 41.336H35.28C35.232 40.808 35.184 37.064 35.184 35.528V11.864C35.184 10.664 35.184 9.32 35.28 8.12C33.84 8.216 32.112 8.216 31.056 8.216H5.28C4.176 8.216 2.88 8.168 1.008 8.12ZM4.992 12.008H31.248V34.808H4.992V12.008ZM77.232 1.4L74.64 2.504C75.84 4.184 77.52 6.968 78.432 8.984L81.12 7.784C80.16 5.96 78.384 3.032 77.232 1.4ZM83.328 0.00799847L80.688 1.112C81.984 2.792 83.52 5.528 84.576 7.496L87.264 6.344C86.256 4.52 84.48 1.64 83.328 0.00799847ZM49.344 9.512V13.784C50.448 13.736 52.8 13.64 54.624 13.64H77.616V36.296H54.048C52.032 36.296 49.92 36.152 48.72 36.008V40.376C50.016 40.28 52.176 40.184 54.144 40.184H77.616C77.568 41.336 77.52 42.344 77.52 42.872H81.84C81.792 42.104 81.648 39.944 81.648 38.216V13.448C81.648 12.296 81.744 10.808 81.792 9.704C80.832 9.752 79.392 9.8 78.192 9.8H54.576C53.04 9.8 50.928 9.704 49.344 9.512Z" fill="black"/>
</svg>
